<?xml version="1.0" encoding="UTF-8" standalone="no"?>
<svg
   xmlns:dc="http://purl.org/dc/elements/1.1/"
   xmlns:cc="http://creativecommons.org/ns#"
   xmlns:rdf="http://www.w3.org/1999/02/22-rdf-syntax-ns#"
   xmlns:svg="http://www.w3.org/2000/svg"
   xmlns="http://www.w3.org/2000/svg"
   xmlns:sodipodi="http://sodipodi.sourceforge.net/DTD/sodipodi-0.dtd"
   xmlns:inkscape="http://www.inkscape.org/namespaces/inkscape"
   id="Layer_1"
   data-name="Layer 1"
   viewBox="0 0 720 150.00039"
   version="1.1"
   sodipodi:docname="arrow.svg"
   width="720"
   height="150"
   inkscape:version="0.92.3 (2405546, 2018-03-11)">
  <metadata
     id="metadata73">
    <rdf:RDF>
      <cc:Work
         rdf:about="">
        <dc:format>image/svg+xml</dc:format>
        <dc:type
           rdf:resource="http://purl.org/dc/dcmitype/StillImage" />
        <dc:title>arrow</dc:title>
      </cc:Work>
    </rdf:RDF>
  </metadata>
  <defs
     id="defs71" />
  <sodipodi:namedview
     pagecolor="#ffffff"
     bordercolor="#666666"
     borderopacity="1"
     objecttolerance="10"
     gridtolerance="10"
     guidetolerance="10"
     inkscape:pageopacity="0"
     inkscape:pageshadow="2"
     inkscape:window-width="1920"
     inkscape:window-height="1017"
     id="namedview69"
     showgrid="false"
     units="in"
     inkscape:zoom="0.70907072"
     inkscape:cx="851.56965"
     inkscape:cy="-136.72144"
     inkscape:window-x="-8"
     inkscape:window-y="-8"
     inkscape:window-maximized="1"
     inkscape:current-layer="Layer_1" />
  <title
     id="title2">arrow</title>
  <path
     d="m 11.237575,78.210114 c 4.749999,-2.35999 9.489999,-4.73998 14.239999,-7.08997 15.6,-7.70997 31.179998,-15.46998 46.829998,-23.08001 5,-2.43001 6,-1.75 6.1,3.70002 0.1,5.45002 0.14,11.13002 0,16.7 -0.08,4.09999 1.71,5.93998 5.82,5.79998 11.08,-0.38 22.160018,-0.95 33.250018,-1 44.35,-0.13 88.69,0 133,-0.12 q 103.65,-0.38 207.3,-1.09999 c 32.47,-0.24 64.93,-1 97.4,-1.42 10.58,-0.13 21.17,0.45 31.76,0.35 20.45,-0.19 40.89,-0.65 61.34,-1 2.93,0 5.85,-0.06 6.43,3.99999 0.73,5.13998 -0.66,6.67997 -6.74,6.68997 q -54.94,0.06 -109.88,0.06 c -18.62,0 -37.24,-0.09 -55.86,0 q -69.72,0.45 -139.44,1.06001 -71.6,0.54 -143.21,1.06999 c -38.22,0.31 -76.44,0.77 -114.660018,1 -4.84,0 -6.91,1.55999 -6.59,6.53997 0.44,6.78998 0.45,13.609966 0.78,20.409966 0.15,3.06 -0.65,4.9 -3.92,3.17 Q 44.067574,97.470054 13.037574,80.830104 c -0.8,-0.42998 -1.669999,-0.70998 -2.509999,-1.05998 z"
     id="path20"
     inkscape:connector-curvature="0" />
  <path
     d="m 719.88759,146.84003 a 45.12,45.12 0 0 1 -5.54,0.69 c -16.68,0.07 -33.36,0.24 -50,-0.07 a 14.5,14.5 0 0 1 -9,-3.48 c -18.13,-17.31 -36,-34.93 -53.86,-52.489966 a 33.84,33.84 0 0 1 -2.71,-3.54999 c 1.47,-0.56999 2.24,-1.11999 3,-1.12999 17.19,-0.26 34.38,-0.68 51.57,-0.48 a 16.06,16.06 0 0 1 9.91,3.93998 c 16.47,15.419966 32.59,31.219966 48.83,46.889966 2.83,2.73 5.72,5.42 8.58,8.12 z"
     id="path22"
     inkscape:connector-curvature="0" />
  <path
     d="m 489.49759,86.970084 c 3.24,-0.38 5.27,-0.82 7.3,-0.83 15.79,-0.06 31.58,-0.26 47.36,0.12 a 15.54,15.54 0 0 1 9.39,3.82998 c 17.59,16.349966 34.88,32.999966 52.22,49.629966 a 72.53,72.53 0 0 1 4.76,5.65 18.87,18.87 0 0 1 -3.73,1.05 c -17.56,0.39 -35.12,0.84 -52.68,0.94 a 11.18,11.18 0 0 1 -7.13,-2.82 c -18.05,-17.41 -35.91,-35 -53.78,-52.609966 a 47.14,47.14 0 0 1 -3.71,-4.95998 z"
     id="path24"
     inkscape:connector-curvature="0" />
  <path
     d="m 593.89759,63.730174 c 2.27,-2.43999 4.45,-4.99999 6.81,-7.3 16,-16.00007 32.16,-31.810081 48.12,-47.8401815 a 13.44,13.44 0 0 1 10.41,-4.46 c 16,0.19 32,0.06 47.94,0.09 1.9,0 3.8,0.22 7.08,0.43 -1.78,2.28 -2.68,3.69 -3.82,4.86 -16.8,17.2001005 -33.7,34.3201315 -50.42,51.5901915 a 13.79,13.79 0 0 1 -10.86,4.66998 c -16.34,-0.2 -32.68,0 -49,-0.07 -1.89,0 -3.77,-0.27 -5.66,-0.41 z"
     id="path26"
     inkscape:connector-curvature="0" />
  <path
     d="m 486.42759,64.920164 c 1.34,-1.52999 2.6,-3.14998 4,-4.56998 15.84,-15.61006 32.19,-30.740121 47.35,-47.000191 6,-6.4300005 12,-8.3400005 20.22,-8.2500005 14,0.15 27.95,-0.63 41.92,-0.87 1.79,0 3.6,0.86 5.4,1.32 -0.86,1.62 -1.4,3.55 -2.64,4.8000005 -17.24,17.4901 -34.61,34.850131 -51.84,52.340191 a 10.84,10.84 0 0 1 -9,3.49998 c -12,-0.32 -24,0.11 -36,0.2 -6.33,0.05 -12.66,0 -19,0 z"
     id="path28"
     inkscape:connector-curvature="0" />
  <path
     d="m 648.20759,148.73003 c -3.81,0 -7.7,-0.49 -11.42,0.09 -12.9,2 -22.1,-3 -30.88,-12.49 -14.32,-15.53 -30.11,-29.71 -45.24,-44.489966 -1.24,-1.21 -2.24,-2.65999 -3.65,-4.33998 1.25,-0.66 2,-1.34 2.7,-1.38 8,-0.4 16.1,-0.95 24.14,-0.87 a 11.16,11.16 0 0 1 7,2.99999 c 18.08,17.889956 36,35.999956 53.9,53.999956 1.43,1.45 2.67,3.08 4,4.63 z"
     id="path30"
     inkscape:connector-curvature="0" />
  <path
     d="m 555.26759,66.090164 c 3.81,-4.19998 7.52,-8.49999 11.45,-12.58001 14.41,-15.00006 28.94,-29.820161 43.31,-44.8401615 2.76,-2.89 5.57,-4.71 9.78,-4.58 7.17,0.23 14.35,0 21.53,0 1.52,0 3,0.29 6,0.58 -5.59,5.7700005 -10.23,10.6200005 -14.94,15.4100005 -14.19,14.45009 -28.48,28.810151 -42.57,43.360181 a 12.94,12.94 0 0 1 -10.42,4.38998 c -7.81,-0.23999 -15.63,-0.07 -23.45,-0.07 z"
     id="path32"
     inkscape:connector-curvature="0" />
</svg>
