<svg xmlns="http://www.w3.org/2000/svg" viewport="400 300 700 400">
 <path xmlns="http://www.w3.org/2000/svg" d="M435.81,307.24c4.75-2.36,9.49-4.74,14.24-7.09,15.6-7.71,31.18-15.47,46.83-23.08,5-2.43,6-1.75,6.1,3.7s.14,11.13,0,16.7c-.08,4.1,1.71,5.94,5.82,5.8,11.08-.38,22.16-.95,33.25-1,44.35-.13,88.69,0,133-.12q103.65-.38,207.3-1.1c32.47-.24,64.93-1,97.4-1.42,10.58-.13,21.17.45,31.76.35,20.45-.19,40.89-.65,61.34-1,2.93,0,5.85-.06,6.43,4,.73,5.14-.66,6.68-6.74,6.69q-54.94.06-109.88.06c-18.62,0-37.24-.09-55.86,0q-69.72.45-139.44,1.06-71.6.54-143.21,1.07c-38.22.31-76.44.77-114.66,1-4.84,0-6.91,1.56-6.59,6.54.44,6.79.45,13.61.78,20.41.15,3.06-.65,4.9-3.92,3.17q-31.12-16.48-62.15-33.12c-.8-.43-1.67-.71-2.51-1.06Z" transform="translate(-40.51 -30.69)"/>
 <path xmlns="http://www.w3.org/2000/svg" d="M911,293.95c1.34-1.53,2.6-3.15,4-4.57,15.84-15.61,32.19-30.74,47.35-47,6-6.43,12-8.34,20.22-8.25,14,.15,27.95-.63,41.92-.87,1.79,0,3.6.86,5.4,1.32-.86,1.62-1.4,3.55-2.64,4.8-17.24,17.49-34.61,34.85-51.84,52.34a10.84,10.84,0,0,1-9,3.5c-12-.32-24,.11-36,.2-6.33.05-12.66,0-19,0Z" transform="translate(-40.51 -30.69)"/>
 <path xmlns="http://www.w3.org/2000/svg" d="M1018.47,292.76c2.27-2.44,4.45-5,6.81-7.3,16-16,32.16-31.81,48.12-47.84a13.44,13.44,0,0,1,10.41-4.46c16,.19,32,.06,47.94.09,1.9,0,3.8.22,7.08.43-1.78,2.28-2.68,3.69-3.82,4.86-16.8,17.2-33.7,34.32-50.42,51.59a13.79,13.79,0,0,1-10.86,4.67c-16.34-.2-32.68,0-49-.07-1.89,0-3.77-.27-5.66-.41Z" transform="translate(-40.51 -30.69)"/>
 <path xmlns="http://www.w3.org/2000/svg" d="M914.07,316c3.24-.38,5.27-.82,7.3-.83,15.79-.06,31.58-.26,47.36.12a15.54,15.54,0,0,1,9.39,3.83c17.59,16.35,34.88,33,52.22,49.63a72.53,72.53,0,0,1,4.76,5.65,18.87,18.87,0,0,1-3.73,1.05c-17.56.39-35.12.84-52.68.94a11.18,11.18,0,0,1-7.13-2.82c-18.05-17.41-35.91-35-53.78-52.61A47.14,47.14,0,0,1,914.07,316Z" transform="translate(-40.51 -30.69)"/>
 <path xmlns="http://www.w3.org/2000/svg" d="M1144.46,375.87a45.12,45.12,0,0,1-5.54.69c-16.68.07-33.36.24-50-.07a14.5,14.5,0,0,1-9-3.48c-18.13-17.31-36-34.93-53.86-52.49a33.84,33.84,0,0,1-2.71-3.55c1.47-.57,2.24-1.12,3-1.13,17.19-.26,34.38-.68,51.57-.48a16.06,16.06,0,0,1,9.91,3.94c16.47,15.42,32.59,31.22,48.83,46.89,2.83,2.73,5.72,5.42,8.58,8.12Z" transform="translate(-40.51 -30.69)"/>
</svg>


