<svg xmlns="http://www.w3.org/2000/svg" xmlns:xlink="http://www.w3.org/1999/xlink" width="145" height="55">
    <defs>
        <path id="a" d="M0 54.65h144.378V0H0z"/>
    </defs>
    <g fill="none" fill-rule="evenodd">
        <path fill="#0F4454" d="M75.403 50.638c1.155 0 1.671-.442 1.671-1.262 0-.891-.704-1.275-1.841-1.275h-1.664v2.537h1.834zm-.215-3.264c1.058 0 1.67-.377 1.67-1.192 0-.82-.508-1.164-1.653-1.164h-1.636v2.356h1.619zm-2.45-3.102h2.523c1.534 0 2.417.59 2.417 1.771 0 .972-.584 1.493-1.308 1.644v.02c.87.164 1.535.693 1.535 1.728 0 1.193-.876 1.944-2.442 1.944h-2.726v-7.107zM83.356 48.263l-2.37-3.99h.892l1.916 3.273 1.908-3.274h.882l-2.387 3.99v3.117h-.84zM94.619 44.272h.837v2.973h3.636v-2.973h.837v7.107h-.837v-3.352h-3.636v3.352h-.837z"/>
        <mask id="b" fill="#fff">
            <use xlink:href="#a"/>
        </mask>
        <path fill="#0F4454" d="M104.314 51.379h.838v-7.107h-.838zM109.54 44.272h.839v6.336h3.394v.77h-4.233zM118.294 45.05h-2.242v-.778h5.333v.777h-2.253v6.33h-.838zM129.61 47.82c0-1.854-.913-2.919-2.194-2.919-1.296 0-2.201 1.065-2.201 2.92 0 1.854.905 2.93 2.2 2.93 1.282 0 2.196-1.076 2.196-2.93m-5.246 0c0-2.28 1.307-3.685 3.05-3.685 1.748 0 3.036 1.404 3.036 3.685 0 2.291-1.288 3.69-3.035 3.69-1.744 0-3.05-1.399-3.05-3.69M134.404 44.272h.883l3.717 5.614h.022v-5.614h.789v7.107h-.754l-3.842-5.777h-.023v5.777h-.792zM142.718 43.758c.206 0 .322-.064.322-.245 0-.178-.116-.246-.324-.246h-.283v.491h.285zm-.484-.668h.496c.325 0 .511.143.511.407 0 .226-.122.345-.317.393l.337.628h-.214l-.318-.604h-.296v.604h-.2V43.09zm1.593.746c0-.643-.494-1.154-1.119-1.154-.63 0-1.121.511-1.121 1.144 0 .638.494 1.152 1.123 1.152.628 0 1.117-.509 1.117-1.142zm-2.408 0a1.29 1.29 0 1 1 2.577-.01 1.29 1.29 0 0 1-1.288 1.305 1.28 1.28 0 0 1-1.289-1.295zM32.332 48.755v.56M20.523 37.996a7.99 7.99 0 0 0 .674-.107c.722 1.77 2.344 3.216 3.318 3.977-.182.046-.277.09-.277.09-2.462-1.564-3.715-3.96-3.715-3.96m24.383 2.848S31.389 42.02 26.75 44.266c-3.963 1.925-5.309 3.343-3.601 7.245 0 0-1.357-.498-1.97-3.063-.567-2.39 3.48-7.657 23.727-7.604m-11.55-2.9l1.857 1.995a45.67 45.67 0 0 0-1.641.112c-1.125-.888-1.738-1.705-2.076-2.317 1.173.108 1.86.21 1.86.21m13.301-.36c-6.739-2.31-19.506-1.427-19.506-1.427 13.874-2.765 19.506 1.428 19.506 1.428m1.334-7.838s-1.904 1.019-2.426.583c0 0 3.693-3.702 5.674-4.313 1.974-.611 2.786-.243 2.786-.243s-3.722 1.88-5.322 3.843c0 0 .709 2.491 3.616 2.24 0 0 1.012.261.585-1.088 0 0-.66-2.116 2.53-2.974 0 0-1.03 3.619 2.997 4.286 0 0 .256.84-.141.89-.41.03-2.887.138-4.127.273-1.24.145-2.503.293-3.639-.383-1.433-.863-1.96-2.264-2.533-3.114m4.411-5.766c-1.506.298-5.739 3.385-5.739 3.385 1.74-3.431 5.594-4.091 5.594-4.091 6.95-1.09 9.381 3.726 9.381 3.726-3.136-3.609-7.705-3.333-9.236-3.02m-25.259 13.52c.86.01 1.675.034 2.404.084.467.884 1.235 2.027 1.734 2.74-.562.094-1.116.183-1.639.28-1.44-1.184-2.158-2.338-2.499-3.104m.241 3.576c-.471.112-.903.233-1.292.328-2.348-1.332-3.254-2.703-3.569-3.684.626-.075 1.261-.127 1.885-.154.682 1.147 2.162 2.7 2.976 3.51M.037 40.745c.22 1.028 1.603 1.528 2.207 1.948.617.42 7.884 3.081 9.048 3.698 1.043.54 6.373 4.645 7.667 5.629l-5.754.72s15.26 1.91 26.088 1.91c10.703 0 27.478-3.357 27.478-3.357l-7.404.53c1.428-1.184 4.246-4.111 4.278-7.168.015-2.051-.509-3.596-1.15-4.754a125.55 125.55 0 0 1-1.843-3.105 9.5 9.5 0 0 1-.69-1.205l-.004-.013h.003c-.707-1.544-.17-2.041-.17-2.041h.007c.33-.415.997-.311.997-.311.13 0 .248.013.326.037.415.129 3.818.937 5.614 1.517 1.801.587 1.338-.957.727-1.35-.667-.462-2.499-1.807-3.023-2.338-.507-.533-.658-1.303-.742-1.709-.078-.407-.159-4.133-3.537-5.813-1.601-.784-3.3-1.302-5.07-1.465-2.416-.216-4.067-.052-6.338 1.442-2.44 1.593-5.654 7.068-6.064 7.689-.391.612-.621.542-.843 1.013-.22.466.415.495 1.055.532.456.024 2.545-.416 2.545-.416s.694.77.504 1.445a.857.857 0 0 1-.084.19c-.004.013-.013.022-.019.037-.026.037-.053.07-.079.102a1.1 1.1 0 0 1-.344.272c-17.014-3.501-27.478 2.325-27.478 2.325S8.94 34.98 8.222 34.863c-1.056-.168-.384 1.065-.384 1.065s1.915 2.068 2.86 2.801c.918.723.248.723-.466 1.15-.726.41-1.577.41-1.577.41s-6.41-.38-7.225-.38c-.84 0-1.609-.25-1.393.836M11.825 16.563h4.606v-.02c-1.133-.443-1.116-1.964-1.103-3.076l.002-.32v-9.31c0-.101 0-.208-.002-.32-.013-1.112-.03-2.632 1.103-3.076v-.02h-4.606v.02c1.118.438 1.096 1.947 1.08 3.05-.002.13-.004.253-.004.371v3.086H4.009V3.862l-.003-.332C3.994 2.412 3.976.884 5.085.44v-.02H.503v.02C1.622.88 1.6 2.378 1.583 3.475a19.73 19.73 0 0 0-.004.362v9.31l.002.325c.013 1.11.031 2.63-1.078 3.071v.02h4.582v-.02c-1.11-.442-1.092-1.96-1.079-3.07l.003-.326v-4.49h8.892v4.49c0 .115.002.236.004.363.016 1.097.039 2.596-1.08 3.033v.02zM26.123 15.249c-1.786 0-3.418-.787-4.594-2.217-1.079-1.31-1.698-3.064-1.698-4.81 0-1.835.6-3.488 1.693-4.656 1.133-1.213 2.707-1.855 4.55-1.855 4.007 0 6.17 3.66 6.17 7.101 0 1.811-.59 3.445-1.66 4.601-1.112 1.2-2.655 1.836-4.46 1.836M26.01-.001c-4.909 0-8.902 3.788-8.902 8.444 0 4.853 3.823 8.514 8.893 8.514 5.027 0 8.967-3.794 8.967-8.637 0-4.664-3.811-8.317-8.675-8.317h-.047A7.925 7.925 0 0 0 26.01 0M39.383 2.705l4.692 11.218c.602 1.415.944 2.043 2.108 2.94l5.51-14.193 1.408 12c0 .804-.122 1.584-1.002 1.875v.017h4.654v-.024c-.97-.69-1.1-1.376-1.247-2.525L53.893 1.921c0-.296.054-1.255.757-1.482V.422h-4.166c-.002.518-.168 1-.368 1.53L46.027 12.47l-.03-.073-4.598-10.861a6.544 6.544 0 0 0-.07-.161c-.134-.303-.272-.615-.274-.952H36.84v.022c1.03.574.889 1.474.785 2.132l-.027.182-1.413 10.45c-.184 1.254-.358 2.44-1.35 3.328v.026h3.921v-.02c-1.123-.518-.985-1.57-.796-3.022l1.423-10.815zM65.583.422H57.79V.44c1.133.444 1.116 1.975 1.103 3.094 0 .114-.003.223-.003.327v9.286l.003.319c.013 1.121.03 2.655-1.103 3.077v.018h10.142l1.078-3.161h-.016c-1.065.94-2.519 1.478-3.99 1.478H61.32V8.657h1.99c.66 0 1.653 0 2.047.689h.022V6.8h-.034c-.3.147-.698.147-1.083.147H61.32V2.13h2.526c1.08 0 2.114.076 2.9.985h.027V.422h-1.19zM80.274 4.788l2.721 8.57c.716 2.254.926 2.396 2.558 3.501.187.127.394.267.621.423L91.308.422h-3.69V.44c1.775.635 1.187 2.456.757 3.788l-.098.309-2.793 9.112-3.431-10.762c-.323-1.023-.51-1.836-.376-2.465h-3.375v.02c1.353.712.841 2.364.39 3.824L75.8 13.723l-.031-.098-3.652-11.481c-.15-.475-.372-1.187-.292-1.722h-3.5v.024c1.073.744 1.478 2.044 1.87 3.3.052.17.105.336.158.5l2.885 9.089c.688 2.164.95 2.348 2.402 3.373.234.166.5.353.802.573l3.832-12.493zM100.323 15.249c-1.786 0-3.417-.787-4.595-2.217-1.08-1.31-1.698-3.064-1.698-4.81 0-1.835.602-3.488 1.693-4.656 1.134-1.213 2.707-1.855 4.551-1.855 4.007 0 6.17 3.66 6.17 7.101 0 1.811-.589 3.445-1.66 4.601-1.111 1.2-2.654 1.836-4.461 1.836m-.114-15.25c-4.907 0-8.901 3.788-8.901 8.444 0 4.853 3.822 8.514 8.892 8.514 5.028 0 8.967-3.794 8.967-8.637 0-4.664-3.81-8.317-8.674-8.317h-.048a7.877 7.877 0 0 0-.236-.003M119.656 15.249c-1.786 0-3.417-.787-4.594-2.217-1.08-1.31-1.698-3.064-1.698-4.81 0-1.835.602-3.488 1.692-4.656 1.135-1.213 2.708-1.855 4.551-1.855 4.008 0 6.17 3.66 6.17 7.101 0 1.811-.589 3.445-1.659 4.601-1.111 1.2-2.655 1.836-4.462 1.836m-.113-15.25c-4.908 0-8.902 3.788-8.902 8.444 0 4.853 3.823 8.514 8.893 8.514 5.028 0 8.966-3.794 8.966-8.637 0-4.664-3.81-8.317-8.674-8.317h-.047a7.909 7.909 0 0 0-.236-.003M135.042 2.09c2.07 0 3.683.55 4.794 1.633 1.14 1.11 1.719 2.751 1.719 4.878 0 1.99-.725 3.62-2.095 4.714-1.21.968-2.927 1.5-4.833 1.5h-1.818V2.093l2.233-.003zm-5.738 14.433h5.836c5.38 0 9.138-3.38 9.138-8.217 0-4.887-3.455-7.924-9.016-7.924h-5.958V.4c1.118.351 1.096 1.854 1.079 2.953-.001.13-.004.254-.004.371v9.286c0 .144.002.283.004.422.011 1.235.023 2.303-1.08 3.067v.024zM72.738 36.625c1.314.484 2.778.73 4.35.73 3.596 0 6.52-2.272 6.52-5.065 0-2.428-2.368-3.518-4.659-4.573-1.93-.888-3.752-1.727-3.752-3.308 0-1.678 1.716-2.274 3.187-2.274 1.4 0 2.884.589 3.806 1.505v-2.68a12.07 12.07 0 0 0-3.611-.534c-1.622 0-3.103.346-4.171.975-1.284.755-1.934 1.858-1.934 3.278 0 2.79 2.373 3.86 4.668 4.893 1.925.866 3.744 1.685 3.744 3.481 0 1.693-2.05 2.594-3.53 2.594-1.858 0-3.832-.742-5.302-1.988l.684 2.966zM84.302 20.84c1.119.437 1.097 1.937 1.08 3.033-.002.127-.004.248-.004.362V31c-.001 1.684-.003 3.274 1.239 4.643.993 1.09 2.597 1.713 4.402 1.713 1.574 0 3.653-.527 4.767-2.006l.058-.077v1.69h3.53v-.02c-1.133-.443-1.115-1.964-1.103-3.077l.003-.319V24.26l-.003-.326c-.012-1.117-.03-2.644 1.095-3.091l-.007-.023h-4.59v.02c1.108.443 1.09 1.96 1.078 3.07l-.003.325v7.525c0 .832.002 1.433-.52 2.15-.757 1.088-2.102 1.738-3.596 1.738-2.601 0-3.92-1.628-3.92-4.836v-6.577l-.003-.324c-.013-1.11-.03-2.628 1.08-3.072v-.019h-4.583v.02zM101.2 36.961h4.582v-.02c-1.11-.442-1.092-1.96-1.078-3.07l.002-.325V24.26l-.002-.324c-.014-1.121-.031-2.653 1.078-3.097v-.019H101.2v.02c1.119.437 1.096 1.946 1.08 3.05-.002.13-.004.254-.004.37v9.286l.003.325c.013 1.12.03 2.65-1.079 3.071v.02zM107.42 20.82l-.787 2.694h.018c.68-.636 1.718-.986 2.922-.986h2.185v11.018l.002.324c.013 1.111.03 2.629-1.079 3.072v.02h4.778v-.023c-1.272-.759-1.272-1.73-1.272-3.071v-11.34h2.233c.75 0 1.784.103 2.125.986h.027l.72-2.694H107.42zM133.507 36.625c1.314.484 2.777.73 4.35.73 3.595 0 6.52-2.272 6.52-5.065 0-2.428-2.368-3.518-4.659-4.573-1.93-.888-3.752-1.727-3.752-3.308 0-1.678 1.717-2.274 3.187-2.274 1.4 0 2.884.589 3.807 1.505v-2.68a12.068 12.068 0 0 0-3.611-.534c-1.622 0-3.104.346-4.172.975-1.284.755-1.934 1.858-1.934 3.278 0 2.79 2.373 3.86 4.669 4.893 1.925.866 3.743 1.685 3.743 3.481 0 1.693-2.05 2.594-3.53 2.594-1.858 0-3.832-.742-5.3-1.988l.682 2.966zM128.341 20.82h-7.683v.02c1.134.443 1.116 1.974 1.104 3.093l-.003.327v9.286l.003.319c.012 1.121.03 2.655-1.104 3.077v.019h10.143l1.077-3.162h-.015c-1.066.94-2.52 1.478-3.991 1.478h-3.683v-6.222h1.99c.66 0 1.653 0 2.047.69h.022v-2.546h-.033c-.3.147-.698.147-1.084.147h-2.942v-4.818h2.526c1.08 0 2.115.076 2.9.985h.027V20.82h-1.3z" mask="url(#b)"/>
    </g>
</svg>
