<?xml version="1.0" encoding="UTF-8" standalone="no"?>
<!-- Created with Inkscape (http://www.inkscape.org/) -->

<svg
   xmlns:dc="http://purl.org/dc/elements/1.1/"
   xmlns:cc="http://creativecommons.org/ns#"
   xmlns:rdf="http://www.w3.org/1999/02/22-rdf-syntax-ns#"
   xmlns:svg="http://www.w3.org/2000/svg"
   xmlns="http://www.w3.org/2000/svg"
   xmlns:sodipodi="http://sodipodi.sourceforge.net/DTD/sodipodi-0.dtd"
   xmlns:inkscape="http://www.inkscape.org/namespaces/inkscape"
   version="1.1"
   id="svg3725"
   width="388"
   height="107"
   viewBox="0 0 388 107"
   sodipodi:docname="christina.svg"
   inkscape:version="0.92.4 (5da689c313, 2019-01-14)">
  <metadata
     id="metadata3731">
    <rdf:RDF>
      <cc:Work
         rdf:about="">
        <dc:format>image/svg+xml</dc:format>
        <dc:type
           rdf:resource="http://purl.org/dc/dcmitype/StillImage" />
        <dc:title></dc:title>
      </cc:Work>
    </rdf:RDF>
  </metadata>
  <defs
     id="defs3729" />
  <sodipodi:namedview
     pagecolor="#ffffff"
     bordercolor="#666666"
     borderopacity="1"
     objecttolerance="10"
     gridtolerance="10"
     guidetolerance="10"
     inkscape:pageopacity="0"
     inkscape:pageshadow="2"
     inkscape:window-width="1920"
     inkscape:window-height="1027"
     id="namedview3727"
     showgrid="false"
     inkscape:zoom="0.73969072"
     inkscape:cx="455.22535"
     inkscape:cy="-28.784743"
     inkscape:window-x="-8"
     inkscape:window-y="-8"
     inkscape:window-maximized="1"
     inkscape:current-layer="svg3725" />
  <path
     style="stroke:white; fill: none; stroke-width: 4px;"
     d="M 34.343746,81.995498 C 24.659599,79.993548 15.608536,73.038633 11.889738,64.741643 8.3628776,56.872883 8.5106296,44.43872 12.214867,37.380261 15.265248,31.56773 19.023438,28.076226 26.392555,24.208637 30.758628,21.917158 32.733819,21.526022 40,21.514029 c 7.570061,-0.01249 9.101726,0.314185 14,2.985971 4.300482,2.345718 5.567969,3.588973 5.81165,5.700547 0.38316,3.320194 -1.131594,6.307757 -4.226233,8.335443 -2.170124,1.421919 -2.698421,1.347655 -7.113755,-1.000001 C 42.583241,34.405085 37.752405,34.321106 32.020432,37.25 25.45301,40.605789 23.5,43.8721 23.5,51.5 c 0,6.828357 1.515535,9.929238 6.770317,13.8525 4.066352,3.035969 12.65738,3.40835 17.722634,0.768192 C 50.230701,64.954311 52.911028,64 53.949234,64 56.071405,64 60,69.65714 60,72.713046 60,78.522899 44.56291,84.108049 34.343746,81.995498 Z M 186.15345,81.910591 C 180.31216,80.782712 175.57041,77.88328 175.18068,75.201092 174.84764,72.909087 178.40867,67 180.12296,67 c 0.54272,0 3.01798,0.925322 5.50056,2.056272 4.78155,2.178244 11.43573,2.315399 12.11386,0.249689 0.23239,-0.707909 -1.36466,-1.630608 -3.9227,-2.266345 -10.01162,-2.488135 -13.20099,-4.334678 -15.62709,-9.04757 -3.95317,-7.679373 -1.53797,-15.694221 5.63207,-18.690055 6.59051,-2.753691 23.08969,-0.586568 24.55228,3.224876 0.26507,0.690782 -0.27267,2.767329 -1.19499,4.61455 -1.41817,2.840296 -2.1399,3.31247 -4.67695,3.059764 -1.65,-0.164351 -5.3625,-0.543498 -8.25,-0.84255 -4.19912,-0.434894 -5.25,-0.249464 -5.25,0.926375 0,2.174876 1.97933,3.362444 6.84177,4.104966 5.98938,0.914612 11.53244,3.941152 12.96117,7.076872 1.6463,3.613226 1.5019,11.042977 -0.28164,14.491975 -2.43891,4.716317 -13.50985,7.66214 -22.36785,5.951772 z M 68.75,80.919901 C 67.145048,79.985102 67,77.421126 67,49.985494 c 0,-28.552753 0.08809,-29.96227 1.934259,-30.95031 2.476558,-1.325414 6.654924,-1.325414 9.131482,0 C 79.805416,19.966229 80,21.223712 80,31.535184 80,37.840833 80.266522,43 80.592271,43 c 0.325749,0 1.736435,-0.9 3.134858,-2 5.201955,-4.091858 16.668821,-1.513226 20.866521,4.692394 C 108.45338,51.398374 109,54.051518 109,67.079626 109,81.244505 108.65856,82 102.25687,82 96.831922,82 96.162181,80.580896 95.815781,68.35209 95.553051,59.077028 95.179962,56.851028 93.595012,55.10209 90.906528,52.135438 85.605957,52.303134 82.454545,55.454545 80.144119,57.764972 80,58.559078 80,68.979296 c 0,10.963007 -0.02484,11.07965 -2.5651,12.045455 -3.253539,1.236993 -6.447294,1.198436 -8.6849,-0.10485 z m 50.5,0.04894 C 117.02501,80.074501 117,79.848695 117,60.654669 c 0,-20.693234 0.13597,-21.282913 5.01188,-21.735015 5.09999,-0.47288 7.17661,0.08513 7.69507,2.067739 0.50997,1.950119 0.57855,1.945431 3.65638,-0.25 2.15484,-1.537049 4.5754,-2.237393 7.73298,-2.237393 6.36176,0 8.24506,1.778992 7.6329,7.210124 -0.72851,6.463259 -1.99857,7.461169 -8.62882,6.779815 -8.34376,-0.857441 -8.51293,-0.596891 -9.14539,14.085296 -0.46897,10.886565 -0.80956,12.84525 -2.44113,14.038284 -2.13356,1.560098 -5.90651,1.704811 -9.26387,0.355319 z m 38,0 C 155.02544,80.074676 155,79.845823 155,60.732224 155,47.029383 155.34943,41.05057 156.2,40.2 156.86,39.54 159.0732,39 161.11821,39 168.31076,39 168,38.048464 168,60.071805 c 0,18.609396 -0.1216,19.922908 -1.93426,20.893011 -2.31551,1.239227 -5.73883,1.240789 -8.81574,0.004 z M 231,80.824615 C 223.37729,78.657567 221,74.194225 221,62.04966 221,53.134334 220.96395,53 218.57143,53 215.14545,53 213,50.444155 213,46.36283 213,41.260862 214.54612,39 218.03518,39 H 221 V 32.7 C 221,25.389955 221.97748,24 227.11821,24 233.61265,24 234,24.456308 234,32.106989 V 39 h 5.3 c 6.36602,0 7.70483,1.123698 7.68469,6.45 -0.0224,5.927238 -1.07861,6.982636 -7.18547,7.180038 l -5.29922,0.171295 -0.31861,4.326823 c -0.17524,2.379753 -0.0456,5.782283 0.28815,7.561179 0.52232,2.784208 1.12337,3.327401 4.31862,3.9029 5.02586,0.905216 6.21184,2.056516 6.21184,6.03021 0,6.47516 -5.09699,8.73319 -14,6.20217 z m 23.66916,-0.07726 c -1.5351,-1.122496 -1.68483,-3.330371 -1.44113,-21.25 L 253.5,39.5 258.32769,39.192036 C 266.04911,38.699478 266,38.562154 266,60.647196 v 19.402306 l -2.5651,0.975249 c -3.49,1.326895 -6.71114,1.22496 -8.76574,-0.277396 z M 276.25,81.015403 C 274.02351,80.074384 274,79.855766 274,60.091241 c 0,-14.212031 0.33869,-20.182527 1.17418,-20.698891 0.6458,-0.399126 3.16039,-0.725683 5.58798,-0.725683 4.0886,0 5.49483,0.808895 6.52902,3.755639 0.17803,0.507269 1.72406,-0.11303 3.43562,-1.378441 6.99701,-5.173114 18.06663,-1.379711 22.94643,7.863419 C 315.77308,52.884747 316,54.618231 316,66.682035 v 13.367467 l -2.75,1.068911 c -1.70812,0.663936 -4.07603,0.749276 -6.25,0.225249 L 303.5,80.5 303,68.852721 C 302.41552,55.237438 301.27477,53 294.91759,53 c -2.88435,0 -4.26034,0.620282 -5.84501,2.634859 -1.78362,2.267507 -2.07471,4.045108 -2.08789,12.75 -0.008,5.563327 -0.38234,10.693585 -0.83092,11.400573 -1.07252,1.690351 -7.05622,2.43348 -9.90377,1.229971 z m 61.25,-0.04529 c -1.65,-0.501414 -4.64709,-2.274267 -6.66021,-3.939675 -11.52941,-9.538048 -10.15379,-28.073801 2.63993,-35.571419 5.31434,-3.114409 12.1558,-3.320154 15.77364,-0.474363 l 2.52308,1.984652 1.4083,-2.121016 c 1.06194,-1.599367 2.43799,-2.121016 5.59501,-2.121016 7.17387,0 7.2222,0.141849 7.20494,21.145172 C 365.97627,70.1176 365.54251,79.175 365.02079,80 c -1.37245,2.170258 -9.92222,1.855285 -11.59108,-0.427015 -1.14204,-1.561831 -1.48786,-1.583413 -3.59662,-0.224458 C 346.70967,81.361362 341.18,82.088415 337.5,80.97011 Z m 12.52412,-16.727909 c 2.51829,-3.201477 2.49456,-5.313086 -0.0967,-8.607342 C 345.63733,50.180887 337,53.327929 337,60.345012 c 0,7.116912 8.49257,9.65813 13.02412,3.897189 z M 156.2,30.8 C 155.54,30.14 155,27.455833 155,24.835184 155,19.617202 156.5379,18 161.5,18 c 4.9621,0 6.5,1.617202 6.5,6.835184 C 168,30.666397 166.79014,32 161.5,32 c -2.255,0 -4.64,-0.54 -5.3,-1.2 z m 98,0 C 253.54,30.14 253,27.455833 253,24.835184 253,19.617202 254.5379,18 259.5,18 c 4.9621,0 6.5,1.617202 6.5,6.835184 C 266,30.666397 264.79014,32 259.5,32 c -2.255,0 -4.64,-0.54 -5.3,-1.2 z"
     id="path3735"
     inkscape:connector-curvature="0" />
</svg>
