<?xml version="1.0" encoding="UTF-8" standalone="no"?>
<!-- Created with Inkscape (http://www.inkscape.org/) -->

<svg
   xmlns:dc="http://purl.org/dc/elements/1.1/"
   xmlns:cc="http://creativecommons.org/ns#"
   xmlns:rdf="http://www.w3.org/1999/02/22-rdf-syntax-ns#"
   xmlns:svg="http://www.w3.org/2000/svg"
   xmlns="http://www.w3.org/2000/svg"
   xmlns:sodipodi="http://sodipodi.sourceforge.net/DTD/sodipodi-0.dtd"
   xmlns:inkscape="http://www.inkscape.org/namespaces/inkscape"
   version="1.1"
   id="svg3713"
   width="586"
   height="119"
   viewBox="0 0 586 119"
   sodipodi:docname="mcconnell.svg"
   inkscape:version="0.92.4 (5da689c313, 2019-01-14)">
  <metadata
     id="metadata3719">
    <rdf:RDF>
      <cc:Work
         rdf:about="">
        <dc:format>image/svg+xml</dc:format>
        <dc:type
           rdf:resource="http://purl.org/dc/dcmitype/StillImage" />
        <dc:title></dc:title>
      </cc:Work>
    </rdf:RDF>
  </metadata>
  <defs
     id="defs3717" />
  <sodipodi:namedview
     pagecolor="#ffffff"
     bordercolor="#666666"
     borderopacity="1"
     objecttolerance="10"
     gridtolerance="10"
     guidetolerance="10"
     inkscape:pageopacity="0"
     inkscape:pageshadow="2"
     inkscape:window-width="1920"
     inkscape:window-height="1027"
     id="namedview3715"
     showgrid="false"
     inkscape:zoom="3.0119454"
     inkscape:cx="293"
     inkscape:cy="59.5"
     inkscape:window-x="1912"
     inkscape:window-y="-8"
     inkscape:window-maximized="1"
     inkscape:current-layer="svg3713" />
  <path
     style="stroke:white; fill: none; stroke-width: 6px;"
     d="M 196.26455,99.458408 C 175.17546,93.778859 162.52358,76.182672 164.29751,54.998759 165.92254,35.59309 179.57693,21.570211 200.37416,17.94853 c 8.30769,-1.446722 18.14291,0.484099 26.332,5.169422 6.45324,3.692173 8.1129,6.490446 6.35976,10.722907 C 231.58421,37.418027 226.27994,43 224.36245,43 c -0.77013,0 -3.97924,-1.386447 -7.13135,-3.080993 -5.07427,-2.727884 -6.48974,-3.040157 -12.35045,-2.724693 -9.19611,0.494998 -15.34191,4.266478 -19.13065,11.739867 -10.26218,20.24243 11.17058,39.962412 31.59034,29.065819 3.09203,-1.65 6.22118,-3 6.95367,-3 1.74441,0 6.04475,4.642192 8.1325,8.77899 2.26095,4.479983 0.59272,7.666562 -5.92651,11.32058 -9.8274,5.50824 -20.34007,7.02378 -30.23545,4.358838 z m 66.68601,0.237773 C 254.23406,97.233888 247.37435,91.455178 242.80133,82.722196 239.75534,76.905365 239.67349,64.495688 242.63826,58 c 2.59616,-5.688073 9.09688,-12.19763 15.16687,-15.18748 6.63059,-3.265984 19.7771,-3.283457 25.91707,-0.03445 6.25031,3.307399 10.54355,7.456886 13.68271,13.224541 7.95215,14.610729 2.00376,33.73249 -12.75349,40.997458 -7.35986,3.623251 -15.0407,4.577511 -21.70086,2.69611 z m 15.77645,-22.223189 c 3.26994,-3.26994 3.48848,-3.868842 2.99838,-8.217004 -0.86589,-7.682133 -7.14867,-11.644173 -14.82003,-9.345781 -4.91223,1.471741 -7.40536,5.133939 -7.40536,10.877843 0,3.679038 0.52014,4.840756 3.26578,7.293979 2.60177,2.324682 4.19785,2.917971 7.85,2.917971 3.91246,0 5.10106,-0.516837 8.11123,-3.527008 z M 462.33245,99.148934 C 454.92491,96.589074 450.86003,93.075502 446.93906,85.843312 443.7263,79.917411 443.50345,78.90777 443.55243,70.5 c 0.0622,-10.672015 2.27326,-16.302916 8.67151,-22.083351 6.69977,-6.052844 11.92107,-7.906354 22.27606,-7.907792 10.13426,-0.0014 13.38424,1.204876 19.79338,7.346632 7.36707,7.059725 8.66934,19.929007 2.60514,25.744583 C 493.88346,76.491517 493.82917,76.501463 478.3427,77 l -15.5319,0.5 2.06574,2.621035 c 1.13615,1.44157 3.79281,3.059415 5.90369,3.595212 3.54584,0.900031 5.98431,0.728538 17.8261,-1.253679 3.49912,-0.585724 4.42148,-0.349096 6.23755,1.600237 2.98575,3.204821 3.78227,8.332616 1.77113,11.402008 -3.48244,5.314887 -23.37697,7.452817 -34.28256,3.684121 z m 18.49763,-33.022753 c 2.34064,-1.483837 0.9879,-6.459684 -2.16514,-7.964127 -3.93656,-1.878292 -8.68429,-0.749621 -12.48738,2.968606 -5.13221,5.017685 -4.39231,5.871595 5.07244,5.854027 4.5375,-0.0084 8.84853,-0.39475 9.58008,-0.858506 z M 15.322621,99.303783 C 10.581509,98.38087 10.515973,97.87543 10.239149,60.097814 10.037913,32.635431 10.272124,23.928657 11.263978,22 12.964769,18.692818 18.57807,17.257404 23.750301,18.807042 27.068127,19.801087 29.259124,22.176146 40.51055,36.975288 47.62946,46.33888 53.727493,54 54.061736,54 54.395978,54 60.481323,46.34934 67.584725,36.998534 81.594209,18.556668 83.638703,16.959234 91.374797,18.410534 98.041445,19.661205 98,19.406592 98,59.111722 98,92.750568 97.891216,94.912657 96.086681,97.139216 94.467078,99.137594 93.295293,99.491491 88.453445,99.444572 79.131747,99.354241 79,98.99809 79,73.889216 79,62.400147 78.6625,53.008683 78.25,53.019295 c -0.4125,0.01061 -4.367041,5.073113 -8.787868,11.25 C 55.864517,83.268214 52.602573,83.308307 39.03921,64.643227 34.385776,58.239452 30.223276,53 29.78921,53 c -0.434065,0 -0.796101,9.5625 -0.804523,21.25 -0.0084,11.6875 -0.35508,21.784347 -0.770352,22.437439 -1.642563,2.583234 -7.2332,3.717841 -12.891714,2.616344 z M 126.88228,98.619422 C 113.58194,93.86654 106.4814,83.854383 106.58562,70 c 0.0708,-9.413737 2.67221,-15.248297 9.55943,-21.440506 6.50307,-5.846819 12.89389,-7.948362 22.32959,-7.342815 7.98151,0.512222 14.4322,3.367472 17.75016,7.856697 2.36973,3.206261 1.71281,6.333454 -2.37125,11.288127 -3.51119,4.259685 -6.06866,4.589726 -12.02376,1.551664 C 133.91251,57.874071 126,62.032254 126,70.232039 c 0,5.491368 2.04947,8.402892 6.94803,9.870537 3.38076,1.012899 4.43804,0.888942 8.27955,-0.970698 6.06571,-2.936362 8.1303,-2.693911 12.13001,1.424457 6.67973,6.877899 5.46242,11.573513 -4.32774,16.693665 -4.24135,2.218182 -6.54152,2.741512 -11.89404,2.706107 -3.6497,-0.02414 -8.26378,-0.625649 -10.25353,-1.336685 z m 186.14595,0.320363 c -1.35947,-0.571677 -2.81508,-1.579496 -3.23469,-2.239599 -0.4196,-0.660102 -0.76981,-12.476678 -0.77823,-26.259056 -0.0118,-19.312101 0.29019,-25.476664 1.31682,-26.880662 1.71626,-2.347137 10.17392,-3.16871 13.66787,-1.327693 1.375,0.724509 2.6438,2.318524 2.81955,3.542257 0.41125,2.863414 0.74744,2.812341 4.77705,-0.725708 4.17363,-3.664494 8.88597,-4.612832 15.28882,-3.076811 5.9116,1.418172 10.22718,4.426811 14.3066,9.97395 C 365.93791,58.399883 367,63.538737 367,80.048147 367,98.31612 366.40192,99.531286 357.45345,99.444572 348.68268,99.35958 348,98.060422 348,81.454316 c 0,-7.328264 -0.44714,-14.500177 -0.99364,-15.937585 -1.45043,-3.814926 -7.29927,-6.045155 -12.08966,-4.609921 -6.02505,1.80515 -6.36381,2.770432 -6.9167,19.708709 -0.38822,11.893603 -0.84067,15.65815 -2.02385,16.839395 -1.94783,1.944644 -9.73176,2.837306 -12.94792,1.484871 z m 68,0 c -1.35947,-0.571677 -2.81508,-1.579496 -3.23469,-2.239599 -0.4196,-0.660102 -0.76981,-12.476678 -0.77823,-26.259056 -0.0118,-19.312101 0.29019,-25.476664 1.31682,-26.880662 1.71626,-2.347137 10.17392,-3.16871 13.66787,-1.327693 1.375,0.724509 2.6438,2.318524 2.81955,3.542257 0.41125,2.863414 0.74744,2.812341 4.77705,-0.725708 4.17363,-3.664494 8.88597,-4.612832 15.28882,-3.076811 5.9116,1.418172 10.22718,4.426811 14.3066,9.97395 C 433.93791,58.399883 435,63.538737 435,80.048147 435,98.31612 434.40192,99.531286 425.45345,99.444572 416.68268,99.35958 416,98.060422 416,81.454316 c 0,-7.328264 -0.44714,-14.500177 -0.99364,-15.937585 -1.45043,-3.814926 -7.29927,-6.045155 -12.08966,-4.609921 -6.02505,1.80515 -6.36381,2.770432 -6.9167,19.708709 -0.38822,11.893603 -0.84067,15.65815 -2.02385,16.839395 -1.94783,1.944644 -9.73176,2.837306 -12.94792,1.484871 z m 142.20144,0.133596 c -5.11638,-0.85455 -9.01854,-3.575128 -11.72967,-8.177911 -1.87639,-3.185611 -2.01857,-5.495681 -2.30047,-37.376328 -0.16525,-18.689472 -0.0484,-34.985217 0.25971,-36.212767 1.30263,-5.190083 14.66851,-5.400487 17.26374,-0.271764 0.91329,1.804841 1.25149,10.516401 1.26228,32.514501 L 528,79.598223 l 3.38988,1.225798 c 3.69672,1.33675 4.57468,3.211527 4.59647,9.815195 0.0238,7.208778 -4.03333,9.891164 -12.75668,8.434165 z m 33.06687,-0.122856 C 551.1347,97.930864 548.32822,96.528281 544.72649,93.1682 539.6024,88.387898 539,83.786747 539,49.429283 c 0,-29.247188 0.1202,-31.356024 1.91332,-33.568499 1.61108,-1.987866 2.79858,-2.352375 7.51751,-2.307553 9.38967,0.08919 8.99108,-1.356576 9.56917,34.708663 l 0.5,31.193378 5,0.804042 c 6.30846,1.014452 8.5,3.442474 8.5,9.417211 0,5.950918 -1.29371,8.03328 -5.76177,9.274143 -4.16604,1.156992 -4.08392,1.156992 -9.94169,-1.43e-4 z"
     id="path3723"
     inkscape:connector-curvature="0" />
</svg>
